<svg xmlns="http://www.w3.org/2000/svg" viewBox="0 0 128 128">
  <style>
    .d { fill: #15110D; }
    @media (prefers-color-scheme: dark) { .d { fill: #ffffff; } }
  </style>
  <path class="d" transform="translate(16,27.75) scale(0.9209)" d="M52.09,78.77l52.16-46.88L68.77,0l-16.68,14.99L35.41,0,0,31.84v.1l52.09,46.83h0ZM52.09,21.63l11.41,10.25-11.41,10.25-11.4-10.25,11.4-10.25h0ZM52.1,66.37l-.03.03L13.66,31.89l4.18-3.73,17.92-16.11,6.55,5.88-15.52,13.96,25.31,22.76,25.31-22.76-15.52-13.96,6.55-5.88,16.6,14.94,5.51,4.91-38.42,34.51-.03-.03h0Z"/>
</svg>
