<?xml version="1.0" encoding="UTF-8"?>
<svg id="Ebene_1" data-name="Ebene 1" xmlns="http://www.w3.org/2000/svg" viewBox="0 0 399.86 78.07">
  <defs>
    <style>
      .cls-1 {
        fill: #fff;
      }
    </style>
  </defs>
  <path class="cls-1" d="M376.19,35.74l23.66-21.27-16.1-14.47-7.57,6.8-7.57-6.8-16.07,14.44v.05l23.63,21.25h0ZM376.19,9.82l5.18,4.65-5.18,4.65-5.17-4.65,5.17-4.65h0ZM376.19,30.11h-.01s-17.43-15.64-17.43-15.64l1.9-1.69,8.13-7.31,2.97,2.67-7.04,6.33,11.48,10.33,11.48-10.33-7.04-6.33,2.97-2.67,7.53,6.78,2.5,2.23-17.43,15.66h-.01Z"/>
  <path class="cls-1" d="M24.82,45.35c-.37.7-.86,1.4-1.46,2.1-.74.84-1.56,1.55-2.45,2.11-.89.57-1.85,1-2.88,1.29-1.03.29-2.1.43-3.21.43-1.2,0-2.3-.19-3.32-.57-1.01-.37-1.87-.92-2.58-1.64-.58-.6-1.05-1.35-1.43-2.24-.38-.9-.65-1.99-.84-3.29-.18-1.29-.27-2.78-.27-4.46,0-2.91.25-5.32.77-7.2.51-1.89,1.29-3.28,2.34-4.18,1.05-.89,2.42-1.34,4.1-1.34,1.41,0,2.77.32,4.1.95,1.33.64,2.56,1.56,3.69,2.77,1.13,1.21,2.1,2.66,2.93,4.35.31.6.56,1.18.75,1.73.18.55.38,1.26.58,2.14h.59l-.52-12.09h-.63c-1.28,1.77-2.35,2.66-3.2,2.66-.38,0-.98-.28-1.8-.85-.73-.54-1.44-.97-2.13-1.31-.69-.33-1.42-.57-2.19-.72-.78-.15-1.59-.23-2.45-.23-2.59,0-4.87.65-6.85,1.94-1.31.85-2.45,1.87-3.44,3.07-.99,1.19-1.74,2.48-2.26,3.85-.52,1.37-.77,2.75-.77,4.15,0,2.34.65,4.52,1.96,6.54,1.31,2.02,3.07,3.62,5.28,4.82,2.22,1.19,4.61,1.79,7.17,1.79,4.08,0,7.33-1.5,9.76-4.5.62-.77,1.09-1.51,1.44-2.21.35-.71.66-1.6.95-2.66h-.63c-.37,1.15-.74,2.08-1.11,2.78h0ZM43.28,27.56c-2.28,1.18-4.09,2.78-5.44,4.8-1.36,2.01-2.03,4.19-2.03,6.51,0,1.75.39,3.43,1.18,5.04.78,1.61,1.88,3.01,3.28,4.22,1.4,1.21,3.03,2.14,4.86,2.8,1.84.65,3.8.99,5.89.99,2.73,0,5.24-.58,7.54-1.74,2.3-1.16,4.11-2.74,5.45-4.73,1.33-1.99,2.01-4.17,2.01-6.53,0-1.57-.33-3.11-.99-4.61-.66-1.51-1.6-2.87-2.8-4.09-1.44-1.44-3.13-2.53-5.08-3.28-1.95-.75-4.1-1.13-6.45-1.13-2.66,0-5.13.59-7.4,1.77h0ZM53.06,26.74c.66.21,1.24.47,1.74.81,1.02.64,1.89,1.5,2.61,2.58.72,1.09,1.27,2.36,1.65,3.82.38,1.46.58,3.03.58,4.71,0,2.59-.35,4.83-1.05,6.71-.7,1.89-1.71,3.33-3.02,4.35-1.32,1.01-2.86,1.52-4.63,1.52-1.31,0-2.5-.29-3.56-.86-1.07-.58-1.98-1.41-2.75-2.51-.77-1.1-1.35-2.4-1.76-3.92-.41-1.52-.61-3.2-.61-5.05,0-1.47.13-2.85.39-4.13.25-1.28.64-2.43,1.15-3.47.51-1.04,1.12-1.93,1.85-2.69.65-.7,1.47-1.23,2.43-1.61.96-.38,2-.57,3.08-.57.61,0,1.25.1,1.91.31h0ZM74.35,26.96h.32c1.06,0,1.96.17,2.7.5.74.33,1.31.8,1.7,1.41.39.61.58,1.35.58,2.23v14.21c0,1.18-.2,2.16-.6,2.95-.4.79-1.02,1.39-1.87,1.8-.84.4-1.94.64-3.28.71v.66h13.1v-.66c-.93-.04-1.65-.1-2.15-.18-.91-.11-1.69-.36-2.32-.74-.78-.49-1.34-1.17-1.69-2.04-.35-.87-.52-2.03-.52-3.49v-14.93l21.68,22.29h.59v-17.97c0-2.2.47-3.87,1.42-5.02.95-1.15,2.33-1.73,4.14-1.73h.25v-.66h-12.44v.66c.83.06,1.47.15,1.93.27.46.12.92.33,1.37.61.85.52,1.5,1.27,1.95,2.26.45.99.67,2.14.67,3.46v10.83l-17.45-18.1h-10.09v.66h0ZM136.2,28.85c-.37,0-1.07-.26-2.11-.77-2.94-1.52-5.77-2.29-8.5-2.29-1.81,0-3.46.31-4.94.94-1.48.62-2.64,1.49-3.47,2.6-.83,1.11-1.24,2.36-1.24,3.75,0,1.15.37,2.21,1.11,3.17.51.68,1.1,1.25,1.79,1.69.69.44,1.63.89,2.84,1.33,1.08.42,3.02,1.01,5.82,1.76l1.8.48c1.47.39,2.63.74,3.48,1.03.84.28,1.53.57,2.07.85.53.27.97.58,1.3.9.73.74,1.1,1.55,1.1,2.46s-.27,1.64-.81,2.32c-.54.68-1.29,1.22-2.25,1.6-.96.38-2.03.57-3.19.57-1.31,0-2.69-.23-4.13-.7-1.45-.47-2.84-1.12-4.16-1.97-1.32-.85-2.41-1.76-3.26-2.74-1.41-1.68-2.25-3.55-2.5-5.61h-.63v11.62h.63c.19-.83.58-1.47,1.18-1.92.6-.45,1.32-.67,2.17-.67.44,0,.91.07,1.42.21.51.14,1.24.4,2.19.78,1.47.62,2.73,1.05,3.75,1.29,1.02.24,2.11.35,3.28.35,1.66,0,3.15-.23,4.45-.68,1.3-.46,2.39-1.14,3.28-2.05.68-.66,1.21-1.42,1.58-2.29.37-.87.56-1.74.56-2.6s-.16-1.69-.49-2.45c-.33-.75-.79-1.41-1.4-1.98-.77-.77-1.69-1.39-2.79-1.85-1.09-.47-2.82-1.01-5.19-1.62l-1.4-.36-.88-.22c-.16-.02-.45-.1-.88-.23-1.59-.38-2.82-.71-3.69-.97-.88-.26-1.6-.53-2.16-.81-.56-.28-.98-.56-1.28-.86-.65-.61-.97-1.34-.97-2.18,0-.44.12-.91.35-1.38.23-.48.53-.91.92-1.3.54-.54,1.2-.95,1.98-1.22.78-.27,1.66-.41,2.66-.41,1.33,0,2.64.18,3.94.53,1.3.35,2.47.84,3.52,1.46,1.05.62,1.92,1.33,2.62,2.15.96,1.16,1.82,2.78,2.57,4.86h.63v-8.62h-.63c-.41,1.38-1.08,2.07-2.01,2.07h0ZM149.66,51.43h15.82v-.7h-.7c-1.53,0-2.67-.37-3.42-1.12-.75-.75-1.13-1.9-1.13-3.44v-14.63c0-1.56.37-2.71,1.11-3.45.74-.74,1.89-1.12,3.44-1.12h.7v-.66h-15.82v.66h.7c1.44,0,2.52.32,3.23.95.4.31.69.7.89,1.17.2.47.34,1.1.44,1.89v15.19c0,1.55-.37,2.7-1.12,3.44-.75.75-1.89,1.12-3.44,1.12h-.7v.7h0ZM173.02,26.96h.9c3.04,0,4.56,1.52,4.56,4.57v14.63c0,3.07-1.52,4.61-4.56,4.61h-.94l.04.66h27.99v-11.12h-.67c-.33,1.15-.68,2.17-1.02,3.06-.35.89-.72,1.64-1.1,2.26-.38.63-.82,1.25-1.33,1.89-.84,1.02-1.83,1.81-2.96,2.38-1.14.57-2.35.86-3.63.86h-6.51v-19.23c0-1.56.37-2.71,1.12-3.45.74-.74,1.89-1.12,3.43-1.12h1.82v-.66h-17.13v.66h0ZM225.46,42.88h-9.98l4.93-11.21,5.05,11.21h0ZM214.34,43.87c-1.21,2.72-2.45,4.57-3.72,5.56-.54.42-1.03.72-1.47.9-.44.18-1.03.31-1.77.4v.7h10.23v-.7c-.48-.02-.85-.07-1.1-.13-.26-.07-.55-.2-.87-.39-.49-.27-.89-.68-1.2-1.22-.3-.54-.46-1.09-.46-1.64,0-.65.13-1.29.4-1.93l.81-1.87h10.64l.42.92c.08.16.16.32.23.48.07.17.13.29.16.36.58,1.26.97,2.13,1.14,2.61.17.48.26.88.26,1.22,0,.54-.22.94-.66,1.2-.44.26-1.13.38-2.08.38h-1.91v.7h14.58v-.7h-.67c-.68,0-1.27-.1-1.77-.3-.51-.2-.96-.52-1.36-.96-.4-.45-.76-1.01-1.08-1.69l-10.1-21.98h-.67l-7.98,18.08h0ZM243.64,26.96h.32c1.05,0,1.95.17,2.69.5.75.33,1.31.8,1.7,1.41.39.61.58,1.35.58,2.23v14.21c0,1.18-.2,2.16-.6,2.95-.4.79-1.03,1.39-1.87,1.8-.84.4-1.94.64-3.28.71v.66h13.1v-.66c-.93-.04-1.65-.1-2.15-.18-.91-.11-1.68-.36-2.32-.74-.78-.49-1.34-1.17-1.69-2.04-.35-.87-.52-2.03-.52-3.49v-14.93l21.67,22.29h.6v-17.97c0-2.2.47-3.87,1.42-5.02.95-1.15,2.33-1.73,4.14-1.73h.25v-.66h-12.43v.66c.83.06,1.47.15,1.93.27.46.12.92.33,1.38.61.85.52,1.5,1.27,1.95,2.26.45.99.67,2.14.67,3.46v10.83l-17.45-18.1h-10.08v.66h0ZM284.02,39.05h.63c.15-1.32.31-2.3.47-2.95.48-1.91,1.18-3.55,2.1-4.93,1.87-2.81,4.3-4.21,7.3-4.21h1.61v19.2c0,3.05-1.52,4.57-4.57,4.57h-3.76v.7h21.93v-.7h-3.79c-3.03,0-4.55-1.52-4.55-4.57v-19.2h1.31c2.95,0,5.38,1.3,7.3,3.9,1.61,2.29,2.57,5.03,2.88,8.22l.57-.04v-12.75h-29.44v12.75h0ZM329.33,27.56c-2.28,1.18-4.1,2.78-5.45,4.8-1.36,2.01-2.03,4.19-2.03,6.51,0,1.75.39,3.43,1.18,5.04.78,1.61,1.87,3.01,3.28,4.22,1.4,1.21,3.02,2.14,4.86,2.8,1.84.65,3.8.99,5.89.99,2.73,0,5.24-.58,7.54-1.74,2.29-1.16,4.11-2.74,5.44-4.73,1.34-1.99,2.01-4.17,2.01-6.53,0-1.57-.33-3.11-.99-4.61-.66-1.51-1.59-2.87-2.8-4.09-1.44-1.44-3.13-2.53-5.08-3.28-1.95-.75-4.09-1.13-6.44-1.13-2.66,0-5.13.59-7.4,1.77h0ZM339.11,26.74c.66.21,1.24.47,1.74.81,1.02.64,1.89,1.5,2.61,2.58.72,1.09,1.27,2.36,1.65,3.82.39,1.46.58,3.03.58,4.71,0,2.59-.35,4.83-1.05,6.71-.71,1.89-1.71,3.33-3.02,4.35-1.31,1.01-2.85,1.52-4.63,1.52-1.31,0-2.49-.29-3.56-.86-1.07-.58-1.98-1.41-2.75-2.51-.77-1.1-1.35-2.4-1.76-3.92-.41-1.52-.61-3.2-.61-5.05,0-1.47.13-2.85.39-4.13.26-1.28.64-2.43,1.15-3.47.51-1.04,1.13-1.93,1.84-2.69.66-.7,1.47-1.23,2.43-1.61.96-.38,1.99-.57,3.08-.57.61,0,1.25.1,1.91.31h0Z"/>
  <path class="cls-1" d="M55.29,69.3l3.01,8.55h1.49l2.35-5.99c.22-.57.26-.73.38-1.31.14.67.19.83.45,1.49l2.27,5.81h1.45l3.05-8.55h-1.39l-2.12,6.24c-.18.51-.21.62-.29,1.15-.12-.52-.18-.67-.28-.95l-2.55-6.44h-1.17l-2.43,6.08c-.24.62-.26.71-.42,1.35-.07-.48-.08-.55-.24-1.04l-2.17-6.39h-1.4ZM76.38,69.31v8.54h8.85v-1.05h-7.55v-2.89h7.02v-1.01h-7.02v-2.54h7.2v-1.05h-8.51ZM92.77,69.32v8.53h1.32v-3.43h4.46l3.13,3.43h1.72l-3.41-3.62c.52-.07.77-.14,1.01-.22,1.38-.54,1.49-1.73,1.49-2.19,0-1.17-.71-2.06-1.95-2.36-.39-.1-.68-.12-1.46-.13h-6.29ZM94.07,70.33h5.08c.72.01,1.33.06,1.73.7.22.35.23.68.23.83,0,.5-.21.78-.34.93-.51.6-1.38.63-2.13.63h-4.57v-3.09h0ZM108.38,69.32v1.02h3.77v7.52h1.3v-7.52h3.78v-1.02h-8.86ZM130.85,69.3l-3.22,6.45c-.21.41-.24.5-.34.93-.19-.61-.26-.7-.44-1.06l-3.22-6.32h-1.45l4.43,8.55h1.32l4.36-8.55h-1.44ZM142.14,69.1c-2.08,0-3.35.75-3.98,1.24-.36.28-.52.47-.67.62-.64.77-.93,1.74-.93,2.72,0,.39.04,1.36.66,2.3,1.07,1.6,2.94,1.91,3.57,2,.64.1,1.18.11,1.41.11,2.32,0,3.73-.86,4.37-1.47,1.12-1.08,1.21-2.41,1.21-2.91,0-.41-.05-1.54-.81-2.55-.48-.64-1.21-1.17-1.97-1.5-1.19-.51-2.44-.55-2.86-.55h0ZM141.98,70.14c.52-.01,3.15-.03,4.14,1.95.13.25.34.76.34,1.49,0,.43-.08.78-.12.96-.32,1.21-1.26,2.01-2.55,2.32-.69.17-1.31.17-1.55.17-1.53,0-2.44-.38-2.97-.73-.4-.27-.6-.48-.73-.64-.63-.78-.67-1.71-.67-2.02,0-.41.07-.86.21-1.24.22-.61.59-.98.77-1.15,1.07-.99,2.74-1.08,3.13-1.09h0ZM154.58,69.3v8.55h7.44v-1.04h-6.13v-7.5h-1.31ZM168.42,69.3v8.55h7.44v-1.04h-6.14v-7.5h-1.3ZM189.36,69.32v8.53h5.92c1.25,0,2.75-.02,3.53-1.12.38-.53.39-1.04.39-1.27,0-.86-.39-1.34-.65-1.59-.43-.41-.86-.53-1.1-.6,0,0,.27-.1.38-.16.35-.17.91-.64.91-1.59,0-.5-.14-.95-.49-1.35-.56-.62-1.44-.8-2.28-.85-.23-.01-.45-.01-.69-.01h-5.92ZM190.67,70.3h4.59c.51,0,1.05,0,1.51.26.56.33.62.83.62,1.05,0,.38-.16.65-.25.77-.39.52-1.03.53-1.63.53h-4.83v-2.61h0ZM190.67,73.89h5c.71.01,1.45.03,1.9.63.26.34.26.69.26.84.01.46-.18.75-.3.9-.47.54-1.18.59-1.85.6h-5v-2.96h0ZM207.14,69.31v8.54h8.85v-1.05h-7.55v-2.89h7.02v-1.01h-7.02v-2.54h7.21v-1.05h-8.51ZM223.53,69.32v8.53h1.32v-3.43h4.46l3.13,3.43h1.71l-3.42-3.62c.53-.07.77-.14,1.01-.22,1.38-.54,1.49-1.73,1.49-2.19,0-1.17-.7-2.06-1.95-2.36-.39-.1-.68-.12-1.46-.13h-6.29ZM224.84,70.33h5.07c.72.01,1.34.06,1.73.7.23.35.24.68.24.83,0,.5-.21.78-.34.93-.51.6-1.38.63-2.13.63h-4.57v-3.09h0ZM244.44,69.3l-4.79,8.55h1.48l1.13-2.11h5.68l1.12,2.11h1.52l-4.74-8.55h-1.4ZM244.76,71.21c.22-.44.26-.56.36-.81.1.35.14.43.31.76l1.95,3.61h-4.57l1.95-3.55h0ZM254.93,69.32v1.02h3.77v7.52h1.31v-7.52h3.78v-1.02h-8.85ZM270.61,69.31v8.54h8.85v-1.05h-7.55v-2.89h7.02v-1.01h-7.02v-2.54h7.21v-1.05h-8.51ZM288.35,69.3h-1.34v8.55h1.25v-6.42c-.01-.25-.04-.51-.06-.76.13.13.25.28.38.43.12.12.22.23.34.35l6.56,6.4h1.28v-8.55h-1.26v5.89c0,.21.01.42.03.62.01.22.04.44.05.64-.16-.19-.33-.36-.5-.55-.15-.17-.31-.33-.48-.5l-6.24-6.11h0Z"/>
</svg>