<?xml version="1.0" encoding="UTF-8"?>
<svg id="Ebene_1" data-name="Ebene 1" xmlns="http://www.w3.org/2000/svg" viewBox="0 0 459.91 112.24">
  <defs>
    <style>
      .cls-1 {
        fill: #fff;
      }
    </style>
  </defs>
  <path class="cls-1" d="M114.67,69.61c3.22,0,3.22-5,0-5s-3.22,5,0,5h0Z"/>
  <path class="cls-1" d="M144.44,1.81c-7.49,14.21-12.73,29.59-15.37,45.44-1.31,7.87-2.14,15.91-2.08,23.89.03,3.79,1.25,7.64,5.21,8.91,3.5,1.12,7.22-.49,9.4-3.28,4.57-5.86,3.54-14.31.51-20.59-3.16-6.55-8.61-11.77-14.48-15.91-11.13-7.85-24.53-12.22-38.07-13.18s-27.39,1.66-39.53,7.8c-1.46.74-2.89,1.54-4.3,2.38-1.69,1.01-1.63,4.22.6,4.57,8.3,1.32,16.65,1.04,24.99.27,8.31-.77,16.61-1.72,24.91-2.6,16.55-1.76,33.09-3.54,49.62-5.42s33.21-3.89,49.79-6.06,33.24-4.53,49.81-7.13,32.98-5.43,49.39-8.6c2.01-.39,4.02-.78,6.03-1.18,1.33-.26,2.08-1.84,1.75-3.08-.38-1.38-1.75-2.01-3.08-1.75-16.23,3.21-32.53,6.1-48.87,8.73s-32.6,5-48.94,7.18c-16.41,2.19-32.84,4.21-49.29,6.11-16.53,1.91-33.07,3.71-49.62,5.48-8.23.88-16.46,1.75-24.69,2.62s-16.39,1.73-24.61,1.22c-1.97-.12-3.92-.32-5.87-.63l.6,4.57c20.93-12.52,48.35-12.86,69.79-1.36,5.53,2.97,10.76,6.63,14.95,11.35,3.94,4.45,7.09,10.14,6.68,16.25-.17,2.48-1.04,5.93-3.48,7.17-.8.4-1.83.58-2.67.24-1.09-.43-1.37-1.66-1.47-2.72-.34-3.58.06-7.38.32-10.96s.63-7.04,1.15-10.53c2.43-16.29,7.57-32.13,15.25-46.7,1.5-2.84-2.81-5.37-4.32-2.52h0Z"/>
  <path class="cls-1" d="M155.28,63.3c7.09-1.84,13.25-6.49,17-12.78,1.03-1.72-.72-4.52-2.82-3.67-8.46,3.41-15.02,10.25-17.94,18.91-.26.78,0,1.89.64,2.43,3.04,2.56,6.77,1.75,10.04.06,3.67-1.89,7.17-4.21,10.7-6.36,7.21-4.4,14.32-8.94,21.36-13.61l-3.03-.39c.31.3.29.22-.07-.26.06.3.08.35.05.16-.03.28.03.61.05.88.06.8.15,1.58.48,2.32.98,2.21,3.19,2.41,5.33,2.66,3.99.46,8.02.62,12.04.5,8.26-.25,16.49-1.67,24.35-4.21,3.05-.99,1.74-5.82-1.33-4.82-7.16,2.32-14.58,3.69-22.1,4-3.71.15-7.43.06-11.12-.28-.46-.04-.92-.09-1.38-.14-.22-.02-1.18-.29-1.38-.16-.26-.09-.28-.04-.07.15l.26.44c-.16-.12-.06-.23-.08-.45-.15-1.6-.19-3.17-1.5-4.32-.8-.7-2.07-1.03-3.03-.39-6.36,4.23-12.8,8.35-19.3,12.35-3.22,1.98-6.45,3.93-9.7,5.86-1.36.8-2.71,1.72-4.19,2.28-.75.28-2.14.8-2.85.2l.64,2.43c2.31-6.86,7.72-12.71,14.45-15.42l-2.82-3.67c-3.11,5.21-8.15,8.96-14.01,10.49-3.11.81-1.79,5.63,1.33,4.82h0Z"/>
  <path class="cls-1" d="M88.52,37.56c-17,5.26-33.83,11.09-50.44,17.49-4.68,1.8-9.34,3.65-13.99,5.54-2.94,1.2-1.89,5.45,1.33,4.82,14.67-2.85,29.33-5.7,44-8.55l-1.93-4.57c-10.26,6.23-20.52,12.46-30.42,19.26-9.69,6.66-19.31,13.81-27.66,22.12C5.11,97.94,1.21,103,.05,109.09c-.36,1.89,1.12,3.52,3.08,3.08,27.26-6.25,53.81-15.52,79.07-27.53,7.11-3.38,14.11-6.99,21-10.8,2.82-1.56.3-5.88-2.52-4.32-24.17,13.38-49.76,24.1-76.25,31.91-7.48,2.2-15.03,4.17-22.63,5.92l3.08,3.08c.95-5.01,3.99-9.06,7.49-12.63,3.9-3.98,8.21-7.6,12.55-11.09,9-7.23,18.62-13.67,28.38-19.82,5.53-3.49,11.11-6.88,16.7-10.27,2.5-1.52.8-5.1-1.93-4.57-14.67,2.85-29.33,5.7-44,8.55l1.33,4.82c16.49-6.71,33.2-12.86,50.1-18.45,4.76-1.57,9.54-3.1,14.33-4.58,3.06-.95,1.76-5.78-1.33-4.82h0Z"/>
  <path class="cls-1" d="M102.77,73.65c3.22,0,3.22-5,0-5s-3.22,5,0,5h0Z"/>
  <path class="cls-1" d="M282.33,2.78c-11.24,10.71-20.39,23.64-26.68,37.84-1.8,4.06-3.4,8.21-4.75,12.45-.68,2.12,1.84,3.88,3.67,2.82,6.56-3.8,12.46-8.64,17.5-14.31s9.36-12.08,13.42-18.54l-4.57-.6c4.75,12.04.92,26.41,9.66,36.98.97,1.17,3.29.88,3.93-.51,3.06-6.65,4.63-14.03,5.98-21.18.73-3.87,1.33-7.76,1.77-11.68.17-1.56.32-3.12.4-4.68s.2-3.29-1.32-4.17c-3.22-1.86-5.61,3.77-3.52,5.86,1.7,1.7,3.69.31,4.54-1.38s1.99-3.07,3.51-4.19c3.56-2.6,7.97-3.88,12.12-5.18,5.11-1.6,10.3-2.94,15.54-4.03,11.82-2.45,23.88-3.52,35.94-3.27l-1.26-4.66c-10.89,8.29-21.86,16.63-31.1,26.79-1.66,1.83-.05,4.81,2.43,4.18,30.53-7.83,61.37-14.42,92.43-19.74,8.69-1.49,17.4-2.87,26.12-4.16,1.34-.2,2.07-1.89,1.75-3.08-.39-1.43-1.73-1.94-3.08-1.75-31.17,4.61-62.16,10.48-92.85,17.62-8.59,2-17.15,4.09-25.69,6.28l2.43,4.18c8.96-9.84,19.54-17.97,30.09-26,.9-.68,1.47-1.66,1.15-2.82-.29-1.07-1.31-1.81-2.41-1.84-10.93-.22-21.87.65-32.64,2.56-5.27.93-10.5,2.13-15.65,3.58-4.73,1.33-9.55,2.73-14.01,4.83-2.17,1.02-4.25,2.31-6,3.96-.93.87-1.75,1.88-2.44,2.96-.3.48-.54.98-.8,1.48-.43.82-.04.04.44-.22l1.26-.34h-.03c.42.11.84.23,1.26.34l-.02-.02.9.9c.19.38.37,1.6.32.84.05.75-.08.4.02.09.04-.12.13-.34.13-.46.09-.24.04-.14-.14.32.3-.57-.14-.25-1.33.95l-1.93-.25h.03c-.3-.28-.6-.58-.9-.88-.18-.26-.19-1.38-.24-.66-.02.3,0,.6-.02.9-.03.68-.07,1.35-.12,2.02-.11,1.46-.26,2.92-.44,4.37-.42,3.42-1.01,6.92-1.69,10.35s-1.5,7.09-2.46,10.59c-.76,2.76-1.77,5.98-2.78,8.16l3.93-.51c-3.71-4.49-4.57-10.56-5.13-16.16-.62-6.26-.92-12.7-3.25-18.62-.78-1.97-3.35-2.54-4.57-.6-3.84,6.1-7.84,12.13-12.64,17.53s-10.27,9.92-16.49,13.52l3.67,2.82c4.51-14.11,11.78-27.36,21.31-38.7,2.77-3.29,5.72-6.42,8.83-9.38,2.33-2.22-1.21-5.76-3.54-3.54h0Z"/>
  <path class="cls-1" d="M197.34,34.28c3.22,0,3.22-5,0-5s-3.22,5,0,5h0Z"/>
</svg>